<mxfile host="app.diagrams.net" modified="2024-05-08T00:57:55.780Z" agent="Mozilla/5.0 (Macintosh; Intel Mac OS X 10_15_7) AppleWebKit/537.36 (KHTML, like Gecko) Chrome/124.0.0.0 Safari/537.36" version="24.2.8" etag="QqdaWe0dt0dREJBudhN7" type="github">
  <diagram name="PÃ¡gina-1" id="vtZ8LADcZHbIsqw4stQ0">
    <mxGraphModel>
      <root>
        <mxCell id="0" />
        <mxCell id="1" parent="0" />
      </root>
    </mxGraphModel>
  </diagram>
</mxfile>
